<svg xmlns="http://www.w3.org/2000/svg" viewBox="0 0 128 128" fill="none">
  <defs>
    <linearGradient id="g" x1="18" y1="10" x2="110" y2="118" gradientUnits="userSpaceOnUse">
      <stop stop-color="#7C3AED"/>
      <stop offset="0.45" stop-color="#22C55E"/>
      <stop offset="1" stop-color="#EC4899"/>
    </linearGradient>
    <radialGradient id="glow" cx="0" cy="0" r="1" gradientUnits="userSpaceOnUse" gradientTransform="translate(64 40) rotate(90) scale(64)">
      <stop stop-color="#FFFFFF" stop-opacity="0.20"/>
      <stop offset="1" stop-color="#000000" stop-opacity="0"/>
    </radialGradient>
  </defs>

  <circle cx="64" cy="64" r="60" fill="#05060A" />
  <circle cx="64" cy="64" r="60" fill="url(#glow)" />
  <circle cx="64" cy="64" r="58" stroke="url(#g)" stroke-width="4" opacity="0.9" />

  <!-- Rocket body -->
  <path d="M64 26c10 7 18 20 18 35 0 20-11 36-18 41-7-5-18-21-18-41 0-15 8-28 18-35Z" fill="#EDEFF6" opacity="0.95"/>
  <path d="M64 35c6 6 10 15 10 26 0 15-6 27-10 31-4-4-10-16-10-31 0-11 4-20 10-26Z" fill="#0B0D14" opacity="0.95"/>
  <circle cx="64" cy="58" r="6" fill="#EDEFF6" opacity="0.92"/>
  <circle cx="64" cy="58" r="3" fill="#0B0D14" opacity="0.95"/>

  <!-- Goat horns (minimal neon arcs) -->
  <path d="M46 46c-8-2-13-8-14-16 10 1 17 6 20 13" stroke="url(#g)" stroke-width="4" stroke-linecap="round" opacity="0.9"/>
  <path d="M82 46c8-2 13-8 14-16-10 1-17 6-20 13" stroke="url(#g)" stroke-width="4" stroke-linecap="round" opacity="0.9"/>

  <!-- Flame -->
  <path d="M64 104c6 0 12-5 12-12 0-4-2-8-5-11 0 5-3 8-7 10-4-2-7-5-7-10-3 3-5 7-5 11 0 7 6 12 12 12Z" fill="url(#g)" opacity="0.9"/>
</svg>

